# xmcd
#
# Track frame offsets:
#	150
#	24402
#	42667
#	62882
#	86357
#	105667
#	128035
#	149952
#	169077
#	192552
#	216585
#	236722
#	263362
#	284275
#	307727
#
# Disc length: 4354 seconds
#
# Revision: 1
# Processed by: cddbd v1.5PL3 Copyright (c) Steve Scherf et al.
# Submitted via: CDex 1.50Beta5
#
DISCID=e011000f
DTITLE=萩原健一 - BEST SELECTION 萩原健一
DYEAR=1900
DGENRE=Blues
TTITLE0=大阪で生まれた女
TTITLE1=時は流れて
TTITLE2=ぐでん ぐでん
TTITLE3=酒と泪と男と女
TTITLE4=PM10時すぎ逢いたくて
TTITLE5=泣くだけ泣いたら
TTITLE6=ラストダンスは私に
TTITLE7=Ah! Ha!
TTITLE8=ホワイト and ブルー
TTITLE9=54日間、待ちぼうけ
TTITLE10=フラ フラ(春よ来い)
TTITLE11=ローリング・オン・ザ・ロード
TTITLE12=ムーン・シャイン
TTITLE13=シャ・ラ・ラ
TTITLE14=ハロー・マイ・ジェラシー
EXTD=
EXTT0=
EXTT1=
EXTT2=
EXTT3=
EXTT4=
EXTT5=
EXTT6=
EXTT7=
EXTT8=
EXTT9=
EXTT10=
EXTT11=
EXTT12=
EXTT13=
EXTT14=
PLAYORDER=
